<?xml version="1.0" encoding="utf-8"?>
<!-- Generator: Adobe Illustrator 20.1.0, SVG Export Plug-In . SVG Version: 6.00 Build 0)  -->
<svg version="1.1" id="Layer_1" xmlns="http://www.w3.org/2000/svg" xmlns:xlink="http://www.w3.org/1999/xlink" x="0px" y="0px"
	 viewBox="0 0 334.2 512" style="enable-background:new 0 0 334.2 512;" xml:space="preserve">
<style type="text/css">
	.st0{fill:#8CC63F;}
	.st1{fill:#39B54A;}
	.st2{fill:#C69C6D;}
</style>
<g>
	<g>
		<path class="st0" d="M298.4,231.8c-11.8-20-21.4-40.8-28.1-62.5c-15.9-50.7-56.1-86.7-103.2-86.7s-87.3,36-103.2,86.7
			c-6.8,21.7-16.4,42.5-28.1,62.5c-16.2,27.4-25.6,60.3-25.6,95.5c0,96.4,70.3,174.5,156.9,174.5S324,423.7,324,327.3
			C324,292.1,314.6,259.2,298.4,231.8z"/>
		<path class="st1" d="M167.1,84.1c0-21.4,17.4-38.8,38.8-38.8s75.2,38.8,75.2,38.8s-53.7,38.8-75.2,38.8
			C184.5,122.9,167.1,105.5,167.1,84.1z"/>
		<path class="st2" d="M236.3,333.9c0,44.8-31,74.6-69.1,74.6S98,378.8,98,333.9s31-87.8,69.1-87.8S236.3,289.1,236.3,333.9z"/>
	</g>
	<g>
		<path d="M307.2,226.6c-11.7-19.8-20.9-40.2-27.2-60.4c-6.1-19.3-15.5-36.8-27.6-51.4c15.9-9.2,29.9-19.2,34.6-22.5
			c2.7-1.9,4.2-5,4.2-8.3s-1.6-6.4-4.2-8.3c-9.4-6.8-57.6-40.7-81.1-40.7c-10.7,0-20.5,3.4-28.6,9.2V10.2c0-5.6-4.6-10.2-10.2-10.2
			c-5.6,0-10.2,4.6-10.2,10.2v62.7c-21.5,2.2-42,11.1-59.7,26.3c-19.6,16.8-34.5,40-43,67c-6.3,20.2-15.5,40.5-27.2,60.4
			c-17.7,30-27,64.8-27,100.7C0,429.2,75,512,167.1,512s167.1-82.8,167.1-184.7C334.2,291.4,324.9,256.6,307.2,226.6z M205.9,55.5
			c10.3,0,36.5,14.8,57.2,28.6c-20.7,13.8-46.9,28.6-57.2,28.6c-12.2,0-22.7-7.7-26.7-18.5h22c5.6,0,10.2-4.6,10.2-10.2
			s-4.6-10.2-10.2-10.2h-21.9C183.4,63.1,193.8,55.5,205.9,55.5z M167.1,491.6c-80.9,0-146.7-73.7-146.7-164.3
			c0-32.3,8.4-63.5,24.2-90.3c12.5-21.2,22.3-42.9,29.1-64.6c13.8-43.9,46.9-74.5,84.1-78.9c4.4,22.6,24.3,39.7,48.1,39.7
			c7.5,0,17.6-3.5,28-8.4c11.8,13.1,20.9,29.4,26.6,47.7c6.8,21.7,16.6,43.5,29.1,64.6c15.8,26.8,24.2,58.1,24.2,90.3
			C313.8,417.9,248,491.6,167.1,491.6z"/>
		<path d="M167.1,235.9c-21.4,0-41.6,11-57,31.1c-14.2,18.6-22.3,42.9-22.3,66.9c0,23.9,8.2,45.7,23.1,61.2
			c14.6,15.2,34.6,23.6,56.2,23.6s41.6-8.4,56.2-23.6c14.9-15.5,23.1-37.3,23.1-61.2c0-24-8.1-48.4-22.4-66.9
			C208.8,247,188.5,235.9,167.1,235.9z M167.1,398.3c-34.1,0-58.9-27.1-58.9-64.4c0-40.6,28.1-77.6,58.9-77.6s58.9,37,58.9,77.6
			C226.1,371.3,201.3,398.3,167.1,398.3z"/>
		<path d="M242.2,243.4c-4.5,3.4-5.4,9.8-2,14.3c14.9,19.6,23.1,44.8,23.1,70.7c0,5.6,4.6,10.2,10.2,10.2c5.6,0,10.2-4.6,10.2-10.2
			c0-30.4-9.7-59.9-27.3-83.1C253.1,240.9,246.7,240,242.2,243.4z"/>
		<path d="M196.6,225c6.8,2.4,13.4,5.7,19.5,9.8c1.7,1.2,3.7,1.7,5.6,1.7c3.3,0,6.5-1.6,8.5-4.5c3.1-4.7,1.9-11-2.8-14.1
			c-7.5-5-15.6-9.1-24-12.1c-5.3-1.9-11.1,0.9-13,6.2C188.5,217.3,191.3,223.1,196.6,225z"/>
	</g>
</g>
</svg>
